<svg width="250" height="91" viewBox="0 0 250 91" fill="none" xmlns="http://www.w3.org/2000/svg">
<g clip-path="url(#clip0_11229_1296)">
<path d="M0.392029 33.7168L11.4888 52.4042L15.9276 48.1696L3.81355 30.2186L0.392029 33.7168Z" fill="url(#paint0_linear_11229_1296)"/>
<path d="M165.55 18.9878L165.087 21.4733L170.358 19.7243L169.711 16.6864L165.55 18.9878Z" fill="#0071B9"/>
<path d="M134.479 2.14146L117.371 21.6574L122.365 20.2765L138.64 0.0241699L134.479 2.14146Z" fill="url(#paint1_linear_11229_1296)"/>
<path d="M226.12 28.8378L230.281 26.6284L229.079 37.1228L226.12 28.8378Z" fill="#1D2C5E"/>
<path d="M199.95 35.5579L203.741 36.3864L208.457 34.085L204.296 32.52L199.95 35.5579Z" fill="#1D2C5E"/>
<path d="M71.2267 24.5111L71.7815 36.5705L77.0525 34.5453L75.4805 22.2097L71.2267 24.5111Z" fill="url(#paint2_linear_11229_1296)"/>
<path d="M204.019 20.8289L199.857 23.1303L199.95 35.5579L204.203 33.4406L205.498 27.3649L204.019 20.8289Z" fill="url(#paint3_linear_11229_1296)"/>
<path d="M203.464 36.3864L198.84 77.2593L206.238 75.7864L207.625 34.177L203.464 36.3864Z" fill="#312370"/>
<path d="M212.434 79.1926L212.619 84.716L226.767 89.2267L231.021 87.0174L217.057 76.2468L203.001 75.05L198.84 77.2594L212.434 79.1926Z" fill="#21386E"/>
<path d="M159.909 69.4345L163.33 67.5934L165.642 71.6439L168.879 69.8948L169.526 75.2341L190.148 78.9163L194.216 76.6149L165.827 59.4004L145.668 62.8065L141.784 66.5808L159.909 69.4345Z" fill="#21386E"/>
<path d="M153.343 19.1719L149.182 21.4733L141.784 66.5809L145.945 64.3715L153.066 39.056L153.343 19.1719Z" fill="url(#paint4_linear_11229_1296)"/>
<path d="M120.423 25.2475L117.094 26.9966L117.371 28.1013L125.231 23.1302L121.81 19.448L117.371 21.6573L120.423 25.2475Z" fill="#1D2C5E"/>
<path d="M129.392 78.5482L95.8246 61.9781L99.9859 58.7561L133.554 76.2468L129.392 78.5482Z" fill="#21386E"/>
<path d="M98.9687 16.8705L93.8827 26.4443L99.2462 24.8794L103.13 14.5691L98.9687 16.8705Z" fill="#1D2C5E"/>
<path d="M52.732 56.5468L48.4782 59.4926C48.4782 59.4926 49.4029 64.2795 50.6051 67.5935C51.8073 70.9075 54.5815 73.5772 54.5815 73.5772C56.4309 75.3262 58.5578 76.615 61.0546 77.3515C65.7707 78.7323 71.1342 77.8118 75.7579 74.8659C76.96 74.1295 78.6245 72.9328 79.6418 71.9201C75.1106 74.6818 52.732 56.5468 52.732 56.5468Z" fill="url(#paint5_linear_11229_1296)"/>
<path d="M75.7579 35.65L79.6418 78.6402L95.7321 76.3388L99.9859 74.1295L80.1041 33.0724L76.0353 34.4532L71.7815 36.5705L75.7579 35.65Z" fill="#1D2C5E"/>
<path d="M15.6501 50.563L33.59 90.9757L50.6051 85.5444L54.7664 82.7827L19.4415 45.9602L15.0028 48.6298L11.4888 52.4041L15.6501 50.563Z" fill="url(#paint6_linear_11229_1296)"/>
<path d="M193.107 69.6187L193.384 71.644C194.864 71.4599 196.343 71.2757 197.73 70.8155C199.302 70.2631 202.631 68.7902 203.834 67.6855C203.279 67.8697 195.511 69.8949 193.107 69.6187Z" fill="#1D2C5E"/>
<path d="M132.906 59.3084L133.554 62.5304C136.975 61.9781 139.934 60.7813 142.894 59.0323C144.743 57.9276 146.685 56.3626 147.332 55.9023C146.87 56.1785 132.906 59.3084 132.906 59.3084Z" fill="#1D2C5E"/>
<path d="M38.259 87.1222L36.9643 84.1764L19.9492 46.4334L19.5793 45.6969L18.8396 46.0651L18.2847 46.3413L15.2331 47.8142C14.7707 47.0778 14.0309 45.789 13.5686 44.9605L6.72553 33.4534L4.96854 30.4156L7.92769 28.5745C10.7019 26.8254 13.846 25.1684 17.36 23.6955C24.203 20.8417 31.1385 19.2768 37.5192 19.2768C39.6461 19.2768 41.6805 19.4609 43.53 19.7371C46.6741 20.1053 49.6332 21.1179 52.0375 22.7749C55.644 24.8001 58.5107 27.9301 60.0827 31.6123C61.3773 34.6502 61.6548 38.2404 60.8225 41.9226L60.3601 44.132L62.2096 42.8432C63.4118 41.9226 64.7064 41.1862 66.0935 40.6338C68.4978 39.6212 70.9946 39.0689 73.4914 39.0689C75.8957 39.0689 78.115 39.5291 80.1494 40.4497L81.4441 41.0021L81.3516 39.5291L80.7968 33.3614L80.7043 32.3488L79.7795 32.6249L76.9129 33.3614L76.4505 22.867L97.5344 16.1469L97.3495 24.3399L98.9216 24.7081L103.545 15.9627L117.324 28.1142L117.879 28.6665L118.433 28.1142C120.283 26.3651 122.595 24.8922 125.092 23.8796L126.109 23.4193L125.369 22.4987L122.872 19.4609L138.685 1.32581L147.008 13.6613L134.339 20.4735L131.565 21.9464L134.801 22.0385C140.812 22.1305 146.175 24.7081 149.782 29.1268L151.077 30.7838L151.909 31.7964L150.522 33.2693L149.597 34.2819L146.453 37.688L145.898 38.3324L146.545 38.8848L149.505 41.5544L150.614 42.567L150.892 41.0941L152.001 34.0978L152.279 32.2567L152.556 30.4156L154.221 20.0132H169.941L170.034 19.2768L170.311 17.5277H183.997L187.326 38.3324L187.511 39.7133L188.621 38.8848C190.008 37.8721 191.487 37.1357 193.06 36.4913C195.186 35.6628 197.313 35.2946 199.533 35.2946C202.122 35.2946 204.619 35.8469 206.746 37.0436C206.838 37.0436 206.838 37.1357 207.023 37.2277L208.04 37.596L208.133 36.4913L208.41 34.1899L208.503 33.4534L207.763 33.2693L204.989 32.6249L204.896 21.7623L226.073 26.3651L227.645 34.1899H229.309L230.974 27.4698L248.636 31.7044L230.511 85.9255L217.657 81.875L217.565 76.904V76.1675L216.825 76.0755L203.971 74.2344L204.711 67.6984L204.896 66.1334L203.509 66.8699C202.862 67.2381 202.214 67.5143 201.567 67.6984C199.44 68.5269 197.313 68.8951 195.186 68.8951C194.539 68.8951 193.984 68.8951 193.337 68.803L192.227 68.711L192.412 69.8157L193.337 75.5231L174.565 72.2091L173.548 63.7399L173.27 60.9783L171.976 63.3717L169.849 67.5143L165.872 60.2418L164.67 58.0325L164.3 60.518L163.468 66.1334L147.008 63.5558L148.302 55.8231L148.58 54.074L147.008 54.9946C144.326 56.5596 141.182 57.8483 137.575 58.6769C136.281 58.953 134.986 59.2292 133.599 59.3212L132.859 59.4133V74.8788L100.494 58.953L99.2914 58.4007V73.4059L84.7731 75.5231L84.1258 68.9872L83.9409 67.2381L82.6462 68.4348C80.7043 70.2759 78.5774 71.7488 76.2656 72.7615C73.8613 73.7741 71.3645 74.3264 68.9602 74.3264C66.4634 74.3264 64.1515 73.7741 62.0246 72.8535C58.1408 71.0124 55.2741 67.6063 54.0719 63.2797C53.5171 61.2544 53.3321 59.1371 53.6096 56.9278L53.887 54.6264L52.2225 56.2834C51.0203 57.3881 49.7257 58.4927 48.3386 59.5054L47.8762 59.8736L48.0612 60.4259L52.9623 79.0213L53.7945 82.3353L50.5579 83.3479L41.4031 86.2937L38.259 87.1222ZM42.3278 37.1357C41.8654 37.1357 41.4031 37.1357 40.8482 37.2277L40.2009 37.3198L39.2762 37.5039L39.5536 38.4245L39.7385 38.9768L42.3278 47.538L42.6052 48.3666L42.9751 49.5633L43.8999 48.7348L44.5472 48.1824C47.1364 45.881 47.9687 43.5796 47.4138 40.6338C47.044 38.8848 45.7493 38.0563 44.9171 37.688C44.3622 37.3198 43.345 37.1357 42.3278 37.1357ZM112.793 37.4119L111.128 38.9768L106.782 43.1193L105.857 44.0399L107.059 44.5002L111.683 46.2493L113.07 46.8016L112.793 45.3287C112.423 43.3955 112.33 41.4623 112.515 39.6212L112.793 37.4119ZM131.657 32.6249C129.9 32.6249 128.143 33.3614 126.941 34.7422C125.092 36.7675 124.722 39.8053 126.016 42.1988L126.386 42.8432L126.941 43.8558L127.773 42.9352L128.328 42.3829L134.709 35.2025L135.171 34.6502L136.003 33.7296L134.894 33.2693L134.154 32.9932C133.229 32.809 132.489 32.6249 131.657 32.6249Z" fill="#FFCB05"/>
<path d="M141.322 43.2906L141.137 43.4748C141.229 43.4748 141.322 43.3827 141.322 43.2906Z" fill="#7D7F68"/>
<path d="M146.87 38.3195L150.014 34.9135L148.904 36.0181V35.9261L147.98 36.9387L144.836 40.2527L147.795 42.9223L148.35 39.6083L149.829 40.8971L146.87 38.3195Z" fill="#7D7F68"/>
<path d="M146.87 38.3196L149.829 40.8972L150.939 33.9009L150.014 34.9135L146.87 38.3196Z" fill="#7D7F68"/>
<path d="M124.954 46.6966C125.231 46.9728 124.954 46.7887 125.231 46.9728L127.173 45.592C126.896 45.4078 126.618 45.1317 126.341 44.9476C123.567 42.37 124.306 36.6625 126.063 33.5326C121.255 37.399 121.532 43.2906 124.954 46.6966Z" fill="#C7A008"/>
<path d="M148.35 49.9186C145.113 52.5882 141.507 54.2453 136.698 55.442C135.681 55.7182 134.571 55.9023 133.646 55.9023C125.971 56.6387 119.59 53.1406 117.186 47.5251C116.909 46.8807 116.631 46.1443 116.446 45.4078C115.337 40.6209 116.261 36.3863 118.666 32.9803C118.943 32.612 119.128 32.3359 119.405 32.0597C119.313 32.1517 119.128 32.2438 119.035 32.3359C118.111 33.1644 117.278 33.9929 116.631 35.0055C114.227 38.3195 113.302 42.6462 114.412 47.4331C114.597 48.1695 114.782 48.906 115.152 49.5504C117.556 55.2579 124.029 58.756 131.612 58.0196C132.629 57.9275 133.646 57.7434 134.756 57.4672C139.565 56.2705 143.263 54.6135 146.408 51.9438C147.147 51.2994 147.98 50.563 148.719 49.8265L148.627 49.7345C148.442 49.8265 148.35 49.8265 148.35 49.9186Z" fill="#C7A008"/>
<path d="M94.4375 35.4658L102.945 23.4985L102.575 23.2223L94.345 34.7293L94.4375 35.4658Z" fill="#C7A008"/>
<path d="M150.939 33.9009L149.829 40.8972L148.35 39.6084L147.795 42.9224L144.836 40.2528L147.98 36.9387L148.904 35.9261V36.0182L150.014 34.9135L150.939 33.9009Z" fill="#C7A008"/>
<path d="M140.397 14.2008L143.356 12.912L137.9 5.91577L136.143 8.49335L140.397 14.2008Z" fill="#C7A008"/>
<path d="M57.5406 31.5074C43.6696 14.7531 18.7943 23.7746 9.91681 31.5994L10.2867 32.2438C12.3211 31.0471 14.5405 30.0345 16.7598 29.0218C25.6373 25.2475 34.1448 24.1429 40.8954 25.3396C43.2997 25.6158 45.7965 26.3522 48.0159 27.8251C51.0675 29.5742 53.3793 31.9676 54.7664 35.0976C57.1707 40.6209 55.0438 47.9854 49.403 54.0611C56.5234 47.5252 61.4245 41.2653 57.5406 31.5074Z" fill="#C7A008"/>
<path d="M85.745 51.0233C85.6525 50.7471 85.6525 50.3789 85.5601 50.1027C84.8203 47.341 83.1558 45.1317 80.9364 43.6588C77.4224 41.2653 72.4288 40.805 67.5277 42.8303C64.9385 43.935 62.7191 45.684 60.8697 47.7093C62.2568 46.5125 63.8288 45.592 65.4933 44.8555C70.3944 42.7382 75.388 43.2906 78.902 45.684C81.1213 47.1569 82.7859 49.3663 83.5257 52.128C83.6181 52.4041 83.7106 52.7724 83.7106 53.0485C83.8955 54.1532 83.988 55.1658 83.988 56.2705C83.8955 59.4925 82.6934 62.7144 80.7514 65.4761C80.474 65.9364 80.1041 66.3046 79.7342 66.7649C80.8439 65.7523 81.8611 64.7397 82.6934 63.5429C84.7278 60.7812 85.8375 57.5593 86.0224 54.3373C86.0224 53.2326 85.93 52.128 85.745 51.0233Z" fill="#C7A008"/>
<path d="M72.1514 46.9729C72.1514 46.9729 74.1858 44.9477 74.0933 44.9477C71.5966 44.8556 70.4869 47.2491 70.3944 47.4332C70.9492 47.157 71.5041 47.065 72.1514 46.9729Z" fill="#C7A008"/>
<path d="M76.8676 49.8266C76.96 50.1949 77.0525 50.471 77.0525 50.8393C77.0525 51.3916 76.96 51.8519 76.6826 52.3122C77.0525 52.1281 80.0117 50.6552 78.902 47.7094C78.9945 47.8935 76.7751 49.8266 76.8676 49.8266Z" fill="#C7A008"/>
<path d="M65.4009 51.5757C65.4009 50.379 67.5278 47.3411 68.1751 46.3285C64.846 48.4458 63.3665 51.2995 63.3665 53.5089C63.3665 57.3752 66.788 60.5052 70.8568 60.5052C72.7987 60.5052 76.3127 59.4925 78.6246 55.8103C77.4224 56.6388 74.3708 58.4799 72.7063 58.4799C68.6374 58.4799 65.4009 55.4421 65.4009 51.5757Z" fill="#C7A008"/>
<path d="M93.9752 55.0738L94.0676 70.6313L96.5644 70.8154L96.0096 53.0486L93.9752 55.0738Z" fill="#C7A008"/>
<path d="M79.7343 25.3397V26.7205L91.5708 23.2224L92.4031 38.2275L94.4375 35.4659L93.9752 20.4607L79.7343 25.3397Z" fill="#C7A008"/>
<path d="M115.337 30.6789L104.332 20.5527L102.945 23.4985L112.747 32.6121L115.337 30.6789Z" fill="#C7A008"/>
<path d="M113.672 49.5504L100.633 45.2238L98.7838 47.249L111.73 52.4041C113.21 55.1658 115.429 57.5593 118.203 59.2163C120.885 60.8733 124.029 61.8859 127.266 62.1621V68.514L129.3 69.5266L129.947 59.9528L113.672 49.5504Z" fill="#C7A008"/>
<path d="M134.571 47.8014C137.808 47.0649 139.565 45.4079 141.229 43.5668C140.027 44.5794 134.109 45.8682 133.091 46.1443L131.149 48.2616C131.982 48.2616 133.461 48.0775 134.571 47.8014Z" fill="#C7A008"/>
<path d="M128.745 25.7078C122.827 26.4443 119.775 31.4153 119.313 31.9677C121.532 30.1265 124.214 28.7457 127.266 28.1013C134.571 26.3522 140.952 28.5616 144.928 33.4406L147.425 31.4153C143.448 26.6284 136.051 23.9588 128.745 25.7078Z" fill="#C7A008"/>
<path d="M148.534 49.7345C149.274 49.1822 150.476 48.5378 151.216 47.8013L143.356 40.8051C142.709 41.5415 142.246 42.7382 141.507 43.2906L148.534 49.7345Z" fill="#C7A008"/>
<path d="M188.945 68.514C180.715 61.7019 181.178 47.249 185.246 42.6462L181.64 19.9083L173.687 20.9209L173.317 22.9462H179.328L182.565 43.5668C178.496 48.1696 176.554 54.3374 177.849 60.0449C178.866 64.4636 181.64 67.9617 185.524 69.9869C185.894 70.171 186.356 70.3552 186.726 70.5393L186.819 70.8154L189.223 71.1837C189.13 71.2757 189.408 68.6981 188.945 68.514Z" fill="#C7A008"/>
<path d="M157.227 23.2223L156.857 25.2475H165.92L168.601 39.8845L170.636 37.8592L168.509 22.3938L157.227 23.2223Z" fill="#C7A008"/>
<path d="M172.763 51.5756L169.803 59.1242L170.543 61.1495L174.704 49.6425L172.763 51.5756Z" fill="#C7A008"/>
<path d="M164.07 46.8809L162.036 48.9061L159.816 62.5304L161.943 63.2669L164.07 46.8809Z" fill="#C7A008"/>
<path d="M204.851 42.4621C206.053 43.2906 207.07 44.3952 207.81 45.684C208.457 46.6966 208.827 47.7093 209.197 48.9981C210.214 53.1406 209.012 57.5593 206.423 61.0574C206.145 61.4256 205.868 61.7939 205.591 62.07C206.608 61.1495 219.554 51.6677 206.978 39.2401C193.107 34.7293 187.836 43.6588 187.373 44.3032C188.853 43.1065 190.517 42.0018 192.367 41.3574C196.991 39.5163 201.614 40.1607 204.851 42.4621Z" fill="#C7A008"/>
<path d="M197.915 43.3827C197.915 43.4747 199.95 41.3574 199.95 41.3574C197.453 41.4495 196.251 42.6462 196.436 43.1985C196.251 43.3827 196.158 43.6588 196.066 43.8429C196.528 43.5668 197.545 43.3827 197.915 43.3827Z" fill="#C7A008"/>
<path d="M202.539 46.5126C202.631 46.8808 202.631 47.1569 202.631 47.5252C202.631 47.9855 202.446 48.4457 202.262 48.814C202.631 48.6299 205.591 47.7093 204.481 44.3953C204.573 44.5794 202.447 46.5126 202.539 46.5126Z" fill="#C7A008"/>
<path d="M195.973 56.9149C198.748 57.0069 201.892 55.3499 204.111 52.3121C198.47 53.5088 192.459 44.027 193.014 43.1064C190.887 44.6714 188.945 47.6172 188.853 49.7345C188.668 53.6009 191.905 56.7308 195.973 56.9149Z" fill="#C7A008"/>
<path d="M227.137 81.494L228.432 82.3225L244.707 33.7168L232.5 30.9551L232.408 33.8088L242.21 35.9261L227.137 81.494Z" fill="#C7A008"/>
<path d="M207.81 25.7079L207.902 28.4696L220.849 31.0471L225.842 54.6136L227.877 52.5883L223.068 28.7457L207.81 25.7079Z" fill="#C7A008"/>
<path d="M217.797 52.5883L214.191 72.6566L216.225 73.301L219.832 50.5631L217.797 52.5883Z" fill="#C7A008"/>
<path d="M49.7729 80.0211L43.7621 58.1117L41.5427 59.6767L47.1836 80.5734L49.7729 80.0211Z" fill="#C7A008"/>
<path d="M48.2008 47.157C46.8137 48.6299 43.6696 51.4837 41.9126 52.5883L40.8029 49.1823L38.4911 41.6337L37.0115 36.5706L35.5319 38.4117L37.0115 43.4748L39.3233 50.9313L40.433 54.3374C42.9298 52.9566 46.4438 50.0108 48.2008 47.157Z" fill="#C7A008"/>
<path d="M134.016 34.1771C132.074 33.4406 129.392 33.6247 127.913 35.2817C127.543 35.65 126.896 36.5705 126.711 37.0308C128.098 35.9261 130.687 35.65 132.259 36.2944L134.016 34.1771Z" fill="#7D7F68"/>
<path d="M46.5363 40.9893C46.3513 39.8846 45.2416 38.964 44.6868 38.6879C43.7621 38.2276 42.0051 38.1355 40.8029 38.4117C40.9879 39.1481 41.2653 40.0687 41.3578 40.4369C41.8201 40.529 42.6524 40.621 43.1148 40.8052C43.6696 41.0813 44.5943 41.6337 44.7793 42.8304C45.0567 44.3033 44.9642 45.7762 44.3169 46.8809C46.0739 45.2239 46.9062 43.3827 46.5363 40.9893Z" fill="#7D7F68"/>
<path d="M49.5407 40.91C48.7085 36.4913 42.8827 34.0058 37.0568 37.1357L38.5364 42.1988L40.8482 49.7474L41.9579 53.1535C46.3042 50.4839 50.6504 47.0778 49.5407 40.91ZM43.8074 47.8142C43.1601 45.789 41.773 41.3703 41.773 41.3703C41.773 41.3703 41.4956 40.4497 41.1257 39.3451C42.3278 39.161 43.53 39.253 44.4547 39.7133C45.0095 39.9895 45.9343 40.5418 46.1192 41.7385C46.6741 44.132 45.8418 45.9731 43.8074 47.8142Z" fill="#3C5AA6"/>
<path d="M137.021 33.9138C133.784 30.968 128.79 31.1521 125.831 34.3741C122.872 37.596 123.057 42.5671 126.294 45.5129C126.571 45.789 126.849 45.9732 127.126 46.1573L137.575 34.3741C137.391 34.282 137.206 34.0979 137.021 33.9138ZM127.218 42.1989C126.201 40.3577 126.386 37.9643 127.958 36.3073C129.438 34.7423 131.657 34.282 133.599 35.0185L127.218 42.1989Z" fill="#3567B0"/>
<path d="M150.939 32.6121L145.205 38.1354L150.661 43.0144L150.939 32.6121Z" fill="#1E2D5F"/>
<path d="M204.481 44.4874C204.573 44.8556 204.573 45.2238 204.573 45.592C204.481 47.8014 202.446 49.4584 199.95 49.3663C197.453 49.2743 195.511 47.4332 195.603 45.2238C195.696 43.1986 197.545 41.5416 199.765 41.4495C199.302 41.3574 198.84 41.2654 198.378 41.2654C194.216 41.0813 190.887 44.0271 190.702 47.6173C190.517 51.4836 193.662 54.7056 197.73 54.7977C201.892 54.9818 205.221 52.036 205.406 48.1696C205.683 46.8808 205.221 45.592 204.481 44.4874Z" fill="#3466AF"/>
<path d="M79.0869 48.9061C79.0869 51.1154 77.0525 52.8645 74.6482 52.8645C72.1514 52.8645 70.2095 51.1154 70.2095 48.9061C70.2095 46.8808 71.9665 45.1318 74.2783 44.9476C73.816 44.8556 73.3536 44.8556 72.8912 44.8556C68.7299 44.8556 65.4933 47.8934 65.4933 51.5757C65.4933 55.4421 68.7299 58.4799 72.7987 58.4799C76.9601 58.4799 80.1966 55.4421 80.1966 51.5757C80.1966 50.1949 79.7343 48.9981 78.9945 47.8934C78.9945 48.1696 79.0869 48.5378 79.0869 48.9061Z" fill="url(#paint7_linear_11229_1296)"/>
<path d="M230.234 26.6414L228.384 34.19L226.72 25.8129L203.971 20.8418L204.156 33.4535L207.578 34.19L207.3 36.4914C207.3 36.4914 207.208 36.4914 207.208 36.3993C202.954 34.19 197.683 33.9138 192.782 35.847C191.118 36.4914 189.546 37.3199 188.158 38.3325L184.737 16.7913H169.664L169.294 19.2769H153.388L151.539 30.3236L150.244 28.6666C146.36 23.9717 140.812 21.3942 134.616 21.21L148.117 14.0297L138.685 0.0371094L121.67 19.553L124.629 23.1432C121.947 24.2479 119.636 25.7208 117.694 27.5619L103.083 14.6741L97.9968 24.34L98.1818 14.9502L75.3408 22.2227L75.9881 34.3741L79.872 33.3615L80.4269 39.5292C75.9881 37.504 70.6247 37.5961 65.7236 39.7134C64.244 40.3577 62.8569 41.0942 61.6548 42.0148C62.487 38.2405 62.3021 34.5582 60.8225 31.2442C59.158 27.3778 56.1064 24.0638 52.4999 22.0386C49.9106 20.2895 46.859 19.2769 43.6224 18.9086C35.7622 17.5278 26.2374 18.9086 16.8976 22.8671C13.4761 24.34 10.2395 25.997 7.37285 27.8381L3.76639 30.1395L5.98575 33.8218L12.8288 45.4208L14.9557 48.919L18.6546 47.0779L19.2095 46.8017L36.2246 84.5448L37.8891 88.1349L41.6805 86.9382L50.8354 83.9924L54.9042 82.7036L53.887 78.6532L48.9859 60.0578C50.373 59.0452 51.6676 57.9405 52.8698 56.7438C52.5924 58.9531 52.7773 61.2545 53.3321 63.3718C54.6268 67.8826 57.5859 71.4728 61.7472 73.406C66.186 75.5232 71.6419 75.5232 76.6355 73.406C79.1322 72.3013 81.4441 70.8284 83.2935 68.8952L83.9409 76.3517L100.031 73.9583V59.5975L133.599 76.1676V60.2419C134.986 60.1498 136.281 59.8737 137.668 59.5975C141.367 58.6769 144.511 57.4802 147.378 55.8232L145.991 64.3844L164.115 67.2382L165.133 60.7022L169.849 69.4475L172.715 63.9242L173.733 73.0377L194.262 76.6279L193.152 69.7237C195.926 69.9999 198.885 69.6316 201.752 68.619C202.399 68.3428 203.139 68.0667 203.694 67.6985L202.862 75.063L216.548 76.9961L216.64 82.6116L230.881 87.0303L249.468 31.3362L230.234 26.6414ZM149.967 34.9264L150.892 33.9138L149.782 40.9101L146.823 38.2405L149.967 34.9264ZM137.945 6.20488L142.939 12.925L128.698 19.9213L127.681 18.4484C127.681 18.5404 137.945 6.20488 137.945 6.20488ZM43.7149 58.1246L49.3558 79.8499L40.2009 82.7957L21.3363 40.818C20.3191 41.3704 18.3772 42.2909 16.7127 43.1194L9.86963 31.6124C12.5514 29.8633 15.603 28.3904 18.7471 27.0096C27.6245 23.2353 36.1321 22.1306 42.8827 23.3273C45.287 23.6035 47.7837 24.34 50.0031 25.8129C53.0547 27.5619 55.3666 29.9554 56.7537 33.0853C60.0827 40.6339 54.6268 51.4966 43.7149 58.1246ZM85.9753 54.2582C85.8828 57.4802 84.6806 60.7022 82.6462 63.4639C80.7043 66.1335 78.115 68.2508 74.9709 69.6316C67.0182 73.0377 59.0655 69.6316 56.9386 62.083C54.9042 54.8106 59.7128 46.1573 67.3881 42.8433C72.2892 40.726 77.2828 41.2783 80.7968 43.6718C83.0161 45.1447 84.6806 47.354 85.4204 50.1157C85.5129 50.3919 85.6054 50.7601 85.6054 51.0363C85.9753 52.1409 85.9753 53.2456 85.9753 54.2582ZM129.345 69.6316L95.9624 53.0615L96.0549 70.4601L87.4548 71.6569L86.8075 64.4765C89.4893 59.9657 90.414 54.5344 89.0269 49.6554C88.2871 46.9858 86.9 44.5923 84.9581 42.7512L83.7559 28.1143L79.872 29.1269L79.6871 25.4446L93.5581 21.3021L94.3904 35.4788L104.562 21.21L114.642 30.6918L100.679 45.3288L113.81 50.4839C115.289 53.2456 117.509 55.547 120.283 57.2961C122.965 58.9531 126.109 59.9657 129.345 60.2419V69.6316ZM112.053 45.5129L107.429 43.7638L111.775 39.6213C111.498 41.5545 111.59 43.4877 112.053 45.5129ZM148.302 49.9316C145.066 52.6012 141.459 54.2582 136.651 55.455C135.634 55.7311 134.524 55.9153 133.599 55.9153C125.924 56.6517 119.543 53.1536 117.139 47.5381C116.861 46.8937 116.584 46.1573 116.399 45.4208C115.289 40.6339 116.214 36.3993 118.618 32.9932C119.266 31.9806 120.098 31.1521 121.023 30.3236C123.242 28.2984 126.109 26.9175 129.345 26.089C136.651 24.34 143.031 26.5493 147.008 31.3362L133.137 46.0652C134.061 46.2494 135.541 45.9732 136.651 45.697C139.98 44.8685 141.829 43.1194 143.401 41.2783L148.95 46.2494L150.614 47.7222C149.874 48.5508 149.135 49.2872 148.302 49.9316ZM177.801 69.5396L174.75 49.6554L170.496 60.6101L164.115 46.8937H164.023L161.526 62.8195L150.892 60.9784L152.371 52.1409C152.741 51.7727 153.203 51.4045 153.573 50.9442L156.995 47.4461L153.666 44.4082L157.272 23.2353H167.999L170.681 37.8722L173.733 20.9339H181.408L184.644 41.5545C180.576 46.1573 178.634 52.3251 179.928 58.0325C180.945 62.4512 183.72 65.9494 187.604 68.0667C187.973 68.2508 188.436 68.4349 188.806 68.619L189.176 71.2887L177.801 69.5396ZM204.341 63.0036C203.139 63.8321 201.844 64.5686 200.457 65.0288C197.683 66.0415 195.001 66.3176 192.505 65.7653C190.84 65.3971 189.268 64.7527 187.881 63.8321C185.754 62.2671 184.182 60.0578 183.442 57.204C182.61 53.798 183.35 50.1157 185.199 46.8937C186.124 45.3288 187.326 43.8559 188.713 42.5671C190.285 41.1863 192.135 39.9895 194.077 39.2531C198.793 37.504 203.417 38.1484 206.653 40.4498C207.855 41.2783 208.872 42.383 209.612 43.6718C210.167 44.6844 210.629 45.7891 210.907 46.9858C211.924 51.1283 210.722 55.547 208.133 59.0452C207.3 60.6101 205.913 61.8989 204.341 63.0036ZM228.384 81.7831L220.524 79.4817L219.877 50.576L215.9 72.8536L207.3 71.4728L207.948 65.0288C213.589 60.334 216.548 52.8774 214.883 46.0652C214.143 43.1194 212.664 40.4498 210.445 38.5166L211.184 30.968L207.948 30.1395L208.04 26.089L222.836 29.0348L227.83 52.5092L232.916 31.4283L244.197 33.9138L228.384 81.7831Z" fill="url(#paint8_linear_11229_1296)"/>
<path d="M238.974 78.5481H239.343C239.806 78.5481 240.176 78.364 240.176 77.9037C240.176 77.6275 239.898 77.2593 239.343 77.2593H238.974V78.5481ZM238.974 80.4813H238.419V76.9832C238.696 76.8911 238.974 76.8911 239.436 76.8911C239.991 76.8911 240.361 76.9832 240.546 77.1673C240.731 77.3514 240.915 77.5355 240.915 77.9037C240.915 78.364 240.638 78.6402 240.268 78.7322C240.546 78.8243 240.823 79.1004 240.823 79.5607C240.915 80.1131 241.008 80.2972 241.008 80.3892H240.453C240.361 80.2972 240.268 79.929 240.176 79.4687C240.083 79.0084 239.898 78.8243 239.436 78.8243H238.974V80.4813ZM239.621 75.9705C238.234 75.9705 237.124 77.1673 237.124 78.6402C237.124 80.1131 238.234 81.3098 239.713 81.3098C241.1 81.3098 242.21 80.1131 242.21 78.6402C242.118 77.1673 241.008 75.9705 239.621 75.9705ZM239.621 75.5103C241.378 75.5103 242.672 76.8911 242.672 78.6402C242.672 80.3892 241.285 81.7701 239.528 81.7701C237.771 81.7701 236.384 80.3892 236.384 78.6402C236.477 76.8911 237.864 75.5103 239.621 75.5103Z" fill="black"/>
</g>
<defs>
<linearGradient id="paint0_linear_11229_1296" x1="12.691" y1="49.2964" x2="3.49189" y2="32.0766" gradientUnits="userSpaceOnUse">
<stop stop-color="#0070B6"/>
<stop offset="1" stop-color="#1D2C5E"/>
</linearGradient>
<linearGradient id="paint1_linear_11229_1296" x1="125.67" y1="14.1879" x2="137.372" y2="1.59342" gradientUnits="userSpaceOnUse">
<stop stop-color="#0070B6"/>
<stop offset="1" stop-color="#1D2C5E"/>
</linearGradient>
<linearGradient id="paint2_linear_11229_1296" x1="74.3726" y1="35.0976" x2="72.9832" y2="23.37" gradientUnits="userSpaceOnUse">
<stop stop-color="#0070B6"/>
<stop offset="1" stop-color="#1D2C5E"/>
</linearGradient>
<linearGradient id="paint3_linear_11229_1296" x1="202.813" y1="32.8404" x2="202.258" y2="22.2555" gradientUnits="userSpaceOnUse">
<stop stop-color="#125D9E"/>
<stop offset="1" stop-color="#1D2C5E"/>
</linearGradient>
<linearGradient id="paint4_linear_11229_1296" x1="163.572" y1="17.5839" x2="151.312" y2="37.1756" gradientUnits="userSpaceOnUse">
<stop stop-color="#125D9E"/>
<stop offset="1" stop-color="#1D2C5E"/>
</linearGradient>
<linearGradient id="paint5_linear_11229_1296" x1="54.3688" y1="48.9273" x2="62.7217" y2="65.4294" gradientUnits="userSpaceOnUse">
<stop stop-color="#105FA1"/>
<stop offset="1" stop-color="#1D2C5E"/>
</linearGradient>
<linearGradient id="paint6_linear_11229_1296" x1="22.6236" y1="43.3053" x2="32.287" y2="65.808" gradientUnits="userSpaceOnUse">
<stop stop-color="#105FA1"/>
<stop offset="1" stop-color="#1D2C5E"/>
</linearGradient>
<linearGradient id="paint7_linear_11229_1296" x1="65.3593" y1="51.653" x2="80.0894" y2="51.653" gradientUnits="userSpaceOnUse">
<stop stop-color="#3C5AA6"/>
<stop offset="0.933" stop-color="#2B73B9"/>
<stop offset="1" stop-color="#2A75BB"/>
</linearGradient>
<linearGradient id="paint8_linear_11229_1296" x1="3.83759" y1="44.1054" x2="249.579" y2="44.1054" gradientUnits="userSpaceOnUse">
<stop stop-color="#3C5AA6"/>
<stop offset="0.933" stop-color="#2B73B9"/>
<stop offset="1" stop-color="#2A75BB"/>
</linearGradient>
<clipPath id="clip0_11229_1296">
<rect width="249.216" height="91" fill="white" transform="translate(0.392029)"/>
</clipPath>
</defs>
</svg>
