<svg width="24" height="24" viewBox="0 0 24 24" xmlns="http://www.w3.org/2000/svg">
<path d="M20.1225 12.6551C20.2988 12.4864 20.4 12.2502 20.4 12.0027C20.4 11.7552 20.2988 11.5227 20.1225 11.3502L13.5225 5.05015C13.1625 4.70515 12.5925 4.72015 12.2513 5.08015C11.91 5.44015 11.9213 6.01015 12.2813 6.3514L17.2538 11.1027L4.5 11.1027C4.00125 11.1027 3.6 11.5039 3.6 12.0027C3.6 12.5014 4.00125 12.9026 4.5 12.9026L17.2538 12.9026L12.2775 17.6502C11.9175 17.9952 11.9063 18.5614 12.2475 18.9214C12.5888 19.2814 13.1588 19.2927 13.5188 18.9514L20.1188 12.6514L20.1225 12.6551Z"/>
</svg>
