<svg width="20" height="20" viewBox="0 0 20 20" fill="none" xmlns="http://www.w3.org/2000/svg">
<path fill-rule="evenodd" clip-rule="evenodd" d="M2.06189 9H5C5.55228 9 6 9.44771 6 10C6 10.5523 5.55228 11 5 11H2.06189C2.51314 14.6187 5.38128 17.4869 9 17.9381V15C9 14.4477 9.44771 14 10 14C10.5523 14 11 14.4477 11 15V17.9381C14.6187 17.4869 17.4869 14.6187 17.9381 11H15C14.4477 11 14 10.5523 14 10C14 9.44771 14.4477 9 15 9H17.9381C17.4869 5.38128 14.6187 2.51314 11 2.06189V5C11 5.55228 10.5523 6 10 6C9.44771 6 9 5.55228 9 5V2.06189C5.38128 2.51314 2.51314 5.38128 2.06189 9ZM0 10C0 4.47715 4.47715 0 10 0C15.5228 0 20 4.47715 20 10C20 15.5228 15.5228 20 10 20C4.47715 20 0 15.5228 0 10Z" fill="#F1C242"/>
</svg>
