<svg width="24" height="24" viewBox="0 0 24 24" xmlns="http://www.w3.org/2000/svg">
<path fill-rule="evenodd" clip-rule="evenodd" d="M7.70711 3.87868C8.26972 3.31607 9.03278 3 9.82843 3H14.1716C14.9672 3 15.7303 3.31607 16.2929 3.87868L18.1213 5.70711C18.3089 5.89464 18.5632 6 18.8284 6H19C20.6569 6 22 7.34315 22 9V18C22 19.6569 20.6569 21 19 21H5C3.34315 21 2 19.6569 2 18V9C2 7.34315 3.34315 6 5 6H5.17157C5.43679 6 5.69114 5.89464 5.87868 5.70711L7.70711 3.87868ZM8 13C8 10.7909 9.79086 9 12 9C14.2091 9 16 10.7909 16 13C16 15.2091 14.2091 17 12 17C9.79086 17 8 15.2091 8 13Z"/>
</svg>
