<svg width="24" height="24" viewBox="0 0 24 24" xmlns="http://www.w3.org/2000/svg">
<path fill-rule="evenodd" clip-rule="evenodd" d="M7.70711 3.87868C8.26972 3.31607 9.03278 3 9.82843 3H14.1716C14.9672 3 15.7303 3.31607 16.2929 3.87868L18.1213 5.70711C18.3089 5.89464 18.5632 6 18.8284 6H19C20.6569 6 22 7.34315 22 9V18C22 19.6569 20.6569 21 19 21H5C3.34315 21 2 19.6569 2 18V9C2 7.34315 3.34315 6 5 6H5.17157C5.43679 6 5.69114 5.89464 5.87868 5.70711L7.70711 3.87868ZM9.82843 5C9.56321 5 9.30886 5.10536 9.12132 5.29289L7.29289 7.12132C6.73028 7.68393 5.96722 8 5.17157 8H5C4.44772 8 4 8.44772 4 9V18C4 18.5523 4.44772 19 5 19H19C19.5523 19 20 18.5523 20 18V9C20 8.44772 19.5523 8 19 8H18.8284C18.0328 8 17.2697 7.68393 16.7071 7.12132L14.8787 5.29289C14.6911 5.10536 14.4368 5 14.1716 5H9.82843ZM12 11C10.8954 11 10 11.8954 10 13C10 14.1046 10.8954 15 12 15C13.1046 15 14 14.1046 14 13C14 11.8954 13.1046 11 12 11ZM8 13C8 10.7909 9.79086 9 12 9C14.2091 9 16 10.7909 16 13C16 15.2091 14.2091 17 12 17C9.79086 17 8 15.2091 8 13Z"/>
</svg>
