<svg width="18" height="20" viewBox="0 0 18 20" fill="none" xmlns="http://www.w3.org/2000/svg">
<path fill-rule="evenodd" clip-rule="evenodd" d="M0 1C0 0.447715 0.447715 0 1 0H17C17.5523 0 18 0.447715 18 1V11C18 12.1819 17.7672 13.3522 17.3149 14.4442C16.8626 15.5361 16.1997 16.5282 15.364 17.364C14.5282 18.1997 13.5361 18.8626 12.4441 19.3149C11.3522 19.7672 10.1819 20 9 20C7.8181 20 6.64778 19.7672 5.55585 19.3149C4.46392 18.8626 3.47177 18.1997 2.63604 17.364C1.80031 16.5282 1.13738 15.5361 0.685084 14.4442C0.232792 13.3522 0 12.1819 0 11V1ZM2 2V11C2 11.9193 2.18106 12.8295 2.53284 13.6788C2.88463 14.5281 3.40024 15.2997 4.05025 15.9497C4.70026 16.5998 5.47194 17.1154 6.32121 17.4672C7.17049 17.8189 8.08075 18 9 18C9.91925 18 10.8295 17.8189 11.6788 17.4672C12.5281 17.1154 13.2997 16.5998 13.9497 15.9497C14.5998 15.2997 15.1154 14.5281 15.4672 13.6788C15.8189 12.8295 16 11.9193 16 11V2H2Z" fill="#FF7D49"/>
</svg>
