<svg width="24" height="24" viewBox="0 0 24 24" fill="none" xmlns="http://www.w3.org/2000/svg">
<path d="M10.8675 19.9575L10.7738 19.8712L4.20377 13.77C3.05252 12.7012 2.40002 11.2012 2.40002 9.62999V9.50624C2.40002 6.86624 4.27502 4.60124 6.87002 4.10624C8.34752 3.82124 9.85877 4.16249 11.0625 5.00999C11.4 5.24999 11.715 5.52749 12 5.84624C12.1575 5.66624 12.3263 5.50124 12.5063 5.34749C12.645 5.22749 12.7875 5.11499 12.9375 5.00999C14.1413 4.16249 15.6525 3.82124 17.13 4.10249C19.725 4.59749 21.6 6.86624 21.6 9.50624V9.62999C21.6 11.2012 20.9475 12.7012 19.7963 13.77L13.2263 19.8712L13.1325 19.9575C12.825 20.2425 12.42 20.4037 12 20.4037C11.58 20.4037 11.175 20.2462 10.8675 19.9575ZM11.3663 7.83749C11.3513 7.82624 11.34 7.81124 11.3288 7.79624L10.6613 7.04624L10.6575 7.04249C9.79127 6.07124 8.48252 5.62874 7.20752 5.87249C5.46002 6.20624 4.20002 7.72874 4.20002 9.50624V9.62999C4.20002 10.6987 4.64627 11.7225 5.43002 12.45L12 18.5512L18.57 12.45C19.3538 11.7225 19.8 10.6987 19.8 9.62999V9.50624C19.8 7.73249 18.54 6.20624 16.7963 5.87249C15.5213 5.62874 14.2088 6.07499 13.3463 7.04249C13.3463 7.04249 13.3463 7.04249 13.3425 7.04624C13.3388 7.04999 13.3425 7.04624 13.3388 7.04999L12.6713 7.79999C12.66 7.81499 12.645 7.82624 12.6338 7.84124C12.465 8.00999 12.2363 8.10374 12 8.10374C11.7638 8.10374 11.535 8.00999 11.3663 7.84124V7.83749Z" fill="black"/>
</svg>
