<svg width="24" height="24" viewBox="0 0 24 24" fill="none" xmlns="http://www.w3.org/2000/svg">
<path d="M4.185 13.665L10.9613 19.9912C11.2425 20.2537 11.6138 20.4 12 20.4C12.3863 20.4 12.7575 20.2537 13.0388 19.9912L19.815 13.665C20.955 12.6037 21.6 11.115 21.6 9.55871V9.34121C21.6 6.71996 19.7063 4.48496 17.1225 4.05371C15.4125 3.76871 13.6725 4.32746 12.45 5.54996L12 5.99996L11.55 5.54996C10.3275 4.32746 8.5875 3.76871 6.8775 4.05371C4.29375 4.48496 2.4 6.71996 2.4 9.34121V9.55871C2.4 11.115 3.045 12.6037 4.185 13.665Z" fill="black"/>
</svg>
