<svg width="24" height="24" viewBox="0 0 24 24" xmlns="http://www.w3.org/2000/svg">
<path d="M22.7925 11.9812C22.7925 12.6562 22.23 13.1849 21.5925 13.1849H20.3925L20.4187 19.1924C20.4187 19.2937 20.4112 19.3949 20.4 19.4962V20.1037C20.4 20.9324 19.7287 21.6037 18.9 21.6037H18.3C18.2587 21.6037 18.2175 21.6037 18.1762 21.5999C18.1237 21.6037 18.0712 21.6037 18.0187 21.6037L16.8 21.5999H15.9C15.0712 21.5999 14.4 20.9287 14.4 20.0999V19.1999V16.7999C14.4 16.1362 13.8637 15.5999 13.2 15.5999H10.8C10.1362 15.5999 9.59999 16.1362 9.59999 16.7999V19.1999V20.0999C9.59999 20.9287 8.92874 21.5999 8.09999 21.5999H7.19999H6.00374C5.94749 21.5999 5.89124 21.5962 5.83499 21.5924C5.78999 21.5962 5.74499 21.5999 5.69999 21.5999H5.09999C4.27124 21.5999 3.59999 20.9287 3.59999 20.0999V15.8999C3.59999 15.8662 3.59999 15.8287 3.60374 15.7949V13.1812H2.40374C1.72874 13.1812 1.20374 12.6562 1.20374 11.9774C1.20374 11.6399 1.31624 11.3399 1.57874 11.0774L11.19 2.6999C11.4525 2.4374 11.7525 2.3999 12.015 2.3999C12.2775 2.3999 12.5775 2.4749 12.8025 2.6624L22.38 11.0812C22.68 11.3437 22.83 11.6437 22.7925 11.9812Z" />
</svg>
