<svg width="24" height="24" viewBox="0 0 24 24" xmlns="http://www.w3.org/2000/svg">
<path d="M12.5813 2.61365C12.2438 2.32865 11.7525 2.32865 11.415 2.61365L1.51502 11.0137C1.13627 11.3362 1.09127 11.9024 1.41002 12.2812C1.72877 12.6599 2.29877 12.7049 2.67752 12.3862L3.60002 11.6062V18.5999C3.60002 20.2574 4.94252 21.5999 6.60002 21.5999H17.4C19.0575 21.5999 20.4 20.2574 20.4 18.5999V11.6062L21.3188 12.3862C21.6975 12.7087 22.2675 12.6599 22.5863 12.2812C22.905 11.9024 22.86 11.3324 22.4813 11.0137L12.5813 2.61365ZM5.40002 18.5999V10.0799L12 4.48115L18.6 10.0799V18.5999C18.6 19.2637 18.0638 19.7999 17.4 19.7999H15.6V14.0999C15.6 13.2712 14.9288 12.5999 14.1 12.5999H9.90002C9.07127 12.5999 8.40002 13.2712 8.40002 14.0999V19.7999H6.60002C5.93627 19.7999 5.40002 19.2637 5.40002 18.5999ZM10.2 19.7999V14.3999H13.8V19.7999H10.2Z"/>
</svg>
