<svg width="20" height="18" viewBox="0 0 20 18" fill="none" xmlns="http://www.w3.org/2000/svg">
<path fill-rule="evenodd" clip-rule="evenodd" d="M5.54569 2C3.62142 2 2 3.62824 2 5.71405C2 6.71057 2.38207 7.65928 3.05124 8.35324L10 15.5594L16.9488 8.35324C17.6179 7.65928 18 6.71057 18 5.71405C18 3.62824 16.3786 2 14.4543 2C13.5259 2 12.6279 2.38212 11.9599 3.07485L10.7198 4.3608C10.5314 4.55626 10.2715 4.66667 10 4.66667C9.72848 4.66667 9.46863 4.55626 9.28016 4.3608L8.04013 3.07485C7.37215 2.38213 6.47408 2 5.54569 2ZM0 5.71405C0 2.59286 2.44892 0 5.54569 0C7.02847 0 8.44284 0.611189 9.47982 1.68658L10 2.22603L10.5202 1.68658C11.5572 0.611188 12.9715 0 14.4543 0C17.5511 0 20 2.59285 20 5.71405C20 7.21801 19.4242 8.66736 18.3884 9.74151L10.7198 17.6941C10.5314 17.8896 10.2715 18 10 18C9.72848 18 9.46863 17.8896 9.28016 17.6941L1.61155 9.74151C0.575766 8.66736 0 7.21801 0 5.71405Z" fill="#F35F49"/>
</svg>
