<svg width="24" height="24" viewBox="0 0 24 24" xmlns="http://www.w3.org/2000/svg">
<path d="M22.8 4.49989C22.8 4.20426 22.6543 3.92731 22.4115 3.75846C22.411 3.75813 22.4113 3.75739 22.4118 3.75739C22.4124 3.75739 22.4126 3.75664 22.4122 3.75632C22.1686 3.58848 21.8581 3.55136 21.5812 3.65614L17.1437 5.34793C16.7561 5.49571 16.5 5.86748 16.5 6.28233V18.6674C16.5 19.3678 17.2014 19.8512 17.856 19.6019L22.2187 17.9399C22.5675 17.8086 22.8 17.4749 22.8 17.0999V4.49989Z" />
<path d="M13.3842 19.7086C14.0316 19.9241 14.7 19.4421 14.7 18.7598V6.3715C14.7 5.94089 14.4243 5.55863 14.0157 5.42266L10.6157 4.29118C9.96828 4.07571 9.29995 4.55766 9.29995 5.24001V17.6283C9.29995 18.0589 9.57561 18.4411 9.98419 18.5771L13.3842 19.7086Z" />
<path d="M6.85619 18.6518C7.24382 18.5041 7.49995 18.1323 7.49995 17.7174V5.33237C7.49995 4.63195 6.79849 4.14854 6.14396 4.39789L1.7812 6.05989C1.4287 6.19114 1.19995 6.52489 1.19995 6.89989V19.4999C1.19995 19.7961 1.34245 20.0736 1.5862 20.2424C1.82995 20.4111 2.1412 20.4486 2.4187 20.3436L6.85619 18.6518Z"/>
</svg>
