<svg width="24" height="24" viewBox="0 0 24 24" xmlns="http://www.w3.org/2000/svg">
<path d="M22.41 3.75739C22.6537 3.92614 22.8 4.20364 22.8 4.49989V17.0999C22.8 17.4749 22.5675 17.8086 22.2187 17.9399L15.9187 20.3399C15.7237 20.4149 15.51 20.4186 15.315 20.3511L8.4187 18.0561L2.4187 20.3436C2.1412 20.4486 1.82995 20.4111 1.5862 20.2424C1.34245 20.0736 1.19995 19.7961 1.19995 19.4999V6.89989C1.19995 6.52489 1.4287 6.19114 1.7812 6.05989L8.0812 3.65989C8.2762 3.58489 8.48995 3.58114 8.68495 3.64864L15.5812 5.94364L21.5812 3.65614C21.8587 3.55114 22.17 3.58864 22.4137 3.75739H22.41ZM2.99995 7.51864V18.1911L7.49995 16.4774V5.80489L2.99995 7.51864ZM14.7 18.2511V7.54864L9.29995 5.74864V16.4511L14.7 18.2511ZM16.5 18.1949L21 16.4811V5.80864L16.5 7.51864V18.1911V18.1949Z"/>
</svg>
