<svg width="24" height="24" viewBox="0 0 24 24" fill="none" xmlns="http://www.w3.org/2000/svg">
<path d="M8.40002 16.1999C9.39377 16.1999 10.2 17.0062 10.2 17.9999V18.5999L12.9188 16.5599C13.23 16.3274 13.6088 16.1999 13.9988 16.1999H19.2C19.53 16.1999 19.8 15.9299 19.8 15.5999V4.7999C19.8 4.4699 19.53 4.1999 19.2 4.1999H4.80002C4.47002 4.1999 4.20002 4.4699 4.20002 4.7999V15.5999C4.20002 15.9299 4.47002 16.1999 4.80002 16.1999H8.40002ZM10.2 20.8499L10.1925 20.8574L10.0013 20.9999L9.36002 21.4799C9.18003 21.6149 8.93628 21.6374 8.73002 21.5362C8.52377 21.4349 8.40002 21.2287 8.40002 20.9999V20.2012V19.9612V19.9499V19.7999V17.9999H6.60002H4.80002C3.47627 17.9999 2.40002 16.9237 2.40002 15.5999V4.7999C2.40002 3.47615 3.47627 2.3999 4.80002 2.3999H19.2C20.5238 2.3999 21.6 3.47615 21.6 4.7999V15.5999C21.6 16.9237 20.5238 17.9999 19.2 17.9999H13.9988L10.2 20.8499Z" fill="black"/>
</svg>
