<svg width="16" height="16" viewBox="0 0 16 16" fill="none" xmlns="http://www.w3.org/2000/svg">
<path d="M11.5 6.49988C11.5 5.1738 10.9732 3.90203 10.0356 2.96434C9.09787 2.02666 7.8261 1.49988 6.50002 1.49988C5.17394 1.49988 3.90217 2.02666 2.96449 2.96434C2.0268 3.90203 1.50002 5.1738 1.50002 6.49988C1.50002 7.82596 2.0268 9.09773 2.96449 10.0354C3.90217 10.9731 5.17394 11.4999 6.50002 11.4999C7.8261 11.4999 9.09787 10.9731 10.0356 10.0354C10.9732 9.09773 11.5 7.82596 11.5 6.49988ZM10.5344 11.5968C9.42814 12.4749 8.02502 12.9999 6.50002 12.9999C2.90939 12.9999 1.90735e-05 10.0905 1.90735e-05 6.49988C1.90735e-05 2.90925 2.90939 -0.00012207 6.50002 -0.00012207C10.0906 -0.00012207 13 2.90925 13 6.49988C13 8.02488 12.475 9.428 11.5969 10.5343L15.7813 14.7186C16.075 15.0124 16.075 15.4874 15.7813 15.778C15.4875 16.0686 15.0125 16.0718 14.7219 15.778L10.5344 11.5968Z" fill="#D4D4D4"/>
</svg>
