<svg width="24" height="24" viewBox="0 0 24 24" xmlns="http://www.w3.org/2000/svg">
<path d="M13.8525 3.2174C13.8038 2.8274 13.5113 2.5124 13.1213 2.4674C12.7538 2.4224 12.3788 2.3999 12 2.3999C11.5838 2.3999 11.1713 2.42615 10.77 2.47865C10.3838 2.5274 10.095 2.8424 10.0463 3.22865L9.93752 4.0949C9.90752 4.3349 9.73502 4.5299 9.50627 4.60865C9.14627 4.72865 8.79377 4.87865 8.46002 5.0474C8.24252 5.1599 7.98002 5.14115 7.78502 4.99115L7.11002 4.46615C6.80252 4.22615 6.37127 4.21115 6.06377 4.45115C5.44127 4.93865 4.88252 5.50115 4.39877 6.1274C4.16252 6.4349 4.17752 6.8624 4.41752 7.1699L4.95002 7.85615C5.10002 8.0474 5.11502 8.30615 5.00627 8.52365C4.84127 8.85365 4.69877 9.1949 4.58252 9.55115C4.50752 9.78365 4.30877 9.95615 4.06877 9.98615L3.21377 10.0949C2.82752 10.1437 2.51252 10.4362 2.46377 10.8224C2.42627 11.2049 2.40002 11.5987 2.40002 11.9999C2.40002 12.3974 2.42252 12.7912 2.47127 13.1774C2.52002 13.5637 2.83502 13.8562 3.22127 13.9049L4.07627 14.0137C4.31627 14.0437 4.51502 14.2162 4.59002 14.4487C4.70627 14.8049 4.84877 15.1499 5.01377 15.4799C5.12252 15.6974 5.10377 15.9562 4.95752 16.1474L4.42502 16.8299C4.18502 17.1374 4.17002 17.5649 4.40627 17.8724C4.89002 18.4987 5.44877 19.0612 6.07127 19.5487C6.37877 19.7887 6.81002 19.7737 7.11752 19.5337L7.79252 19.0087C7.98377 18.8587 8.25002 18.8437 8.46752 18.9524C8.80502 19.1249 9.15377 19.2712 9.51377 19.3912C9.74252 19.4699 9.91502 19.6649 9.94502 19.9049L10.0538 20.7712C10.1025 21.1574 10.3913 21.4724 10.7775 21.5212C11.1788 21.5737 11.5913 21.5999 12.0075 21.5999C12.3863 21.5999 12.7613 21.5774 13.1288 21.5362C13.5188 21.4912 13.8113 21.1724 13.86 20.7862L13.965 19.9424C13.995 19.6987 14.1713 19.4999 14.4038 19.4249C14.7788 19.3049 15.1425 19.1549 15.4913 18.9824C15.7088 18.8737 15.9675 18.8924 16.1588 19.0387L16.8375 19.5712C17.145 19.8112 17.5725 19.8262 17.88 19.5899C17.985 19.5074 18.0863 19.4249 18.1875 19.3387L19.3388 18.1874C19.4063 18.1049 19.4738 18.0224 19.5413 17.9399C19.785 17.6324 19.7663 17.2012 19.5263 16.8937L19.0013 16.2224C18.8513 16.0312 18.8363 15.7649 18.945 15.5474C19.125 15.1949 19.2825 14.8237 19.4063 14.4412C19.4813 14.2087 19.68 14.0362 19.92 14.0062L20.775 13.9012C21.1613 13.8524 21.48 13.5599 21.525 13.1737C21.5325 13.1099 21.54 13.0424 21.5475 12.9787V11.0324C21.54 10.9687 21.5325 10.9012 21.525 10.8374C21.4763 10.4512 21.1613 10.1587 20.775 10.1099L19.92 10.0049C19.68 9.9749 19.4813 9.8024 19.4063 9.5699C19.2788 9.1874 19.125 8.81615 18.945 8.46365C18.8325 8.24615 18.8513 7.98365 19.0013 7.78865L19.5263 7.1174C19.7663 6.8099 19.7813 6.37865 19.5413 6.07115C19.4738 5.98865 19.4063 5.90615 19.3388 5.82365L18.1875 4.66115C18.0863 4.5749 17.985 4.4924 17.88 4.4099C17.5725 4.1699 17.145 4.18865 16.8375 4.42865L16.1513 4.96115C15.96 5.11115 15.6975 5.12615 15.4838 5.0174C15.135 4.8449 14.7713 4.6949 14.3963 4.5749C14.1638 4.4999 13.9875 4.30115 13.9575 4.06115L13.8525 3.2174ZM12 8.9999C12.7957 8.9999 13.5587 9.31597 14.1213 9.87858C14.684 10.4412 15 11.2043 15 11.9999C15 12.7956 14.684 13.5586 14.1213 14.1212C13.5587 14.6838 12.7957 14.9999 12 14.9999C11.2044 14.9999 10.4413 14.6838 9.8787 14.1212C9.31609 13.5586 9.00002 12.7956 9.00002 11.9999C9.00002 11.2043 9.31609 10.4412 9.8787 9.87858C10.4413 9.31597 11.2044 8.9999 12 8.9999Z"/>
</svg>
