<svg width="24" height="24" viewBox="0 0 24 24" xmlns="http://www.w3.org/2000/svg">
<path d="M12 8.3999C11.0452 8.3999 10.1296 8.77919 9.45444 9.45432C8.77931 10.1294 8.40002 11.0451 8.40002 11.9999C8.40002 12.9547 8.77931 13.8704 9.45444 14.5455C10.1296 15.2206 11.0452 15.5999 12 15.5999C12.9548 15.5999 13.8705 15.2206 14.5456 14.5455C15.2207 13.8704 15.6 12.9547 15.6 11.9999C15.6 11.0451 15.2207 10.1294 14.5456 9.45432C13.8705 8.77919 12.9548 8.3999 12 8.3999ZM13.8 11.9999C13.8 12.4773 13.6104 12.9351 13.2728 13.2727C12.9353 13.6103 12.4774 13.7999 12 13.7999C11.5226 13.7999 11.0648 13.6103 10.7272 13.2727C10.3897 12.9351 10.2 12.4773 10.2 11.9999C10.2 11.5225 10.3897 11.0647 10.7272 10.7271C11.0648 10.3895 11.5226 10.1999 12 10.1999C12.4774 10.1999 12.9353 10.3895 13.2728 10.7271C13.6104 11.0647 13.8 11.5225 13.8 11.9999ZM11.2088 2.3999C10.3763 2.3999 9.65252 2.9699 9.45752 3.77615L9.15002 5.0624L9.10877 5.0774L7.98377 4.3874C7.27502 3.9524 6.36002 4.06115 5.77127 4.6499L4.65377 5.77115C4.06502 6.3599 3.95627 7.2749 4.39127 7.98365L5.08127 9.10865L5.06252 9.1499L3.78002 9.46115C2.97002 9.6524 2.40002 10.3762 2.40002 11.2087V12.7912C2.40002 13.6237 2.97002 14.3474 3.77627 14.5424L5.06252 14.8499L5.07752 14.8912L4.38752 16.0162C3.95252 16.7249 4.06127 17.6399 4.65002 18.2287L5.76752 19.3462C6.35627 19.9349 7.27127 20.0437 7.98002 19.6087L9.10502 18.9187L9.14627 18.9337L9.45752 20.2162C9.65252 21.0262 10.3763 21.5924 11.2088 21.5924H12.7913C13.6238 21.5924 14.3475 21.0224 14.5425 20.2162L14.85 18.9374L14.8913 18.9224L16.0163 19.6124C16.725 20.0474 17.64 19.9387 18.2288 19.3499L19.3463 18.2324C19.935 17.6437 20.0438 16.7287 19.6088 16.0199L18.9188 14.8949L18.9338 14.8537L20.2163 14.5424C21.0263 14.3474 21.5925 13.6237 21.5925 12.7912V11.2087C21.5925 10.3762 21.0225 9.6524 20.2163 9.4574L18.9375 9.1499L18.9225 9.10865L19.6125 7.98365C20.0475 7.2749 19.9388 6.3599 19.35 5.77115L18.2288 4.65365C17.64 4.0649 16.725 3.95615 16.0163 4.39115L14.8913 5.08115L14.85 5.0624L14.5388 3.7799C14.3475 2.9699 13.6238 2.3999 12.7913 2.3999H11.2088ZM11.2088 4.1999H12.7913L13.215 5.9474C13.2863 6.2474 13.5113 6.49115 13.8038 6.58865C14.0588 6.6749 14.31 6.77615 14.55 6.89615C14.8275 7.0349 15.1575 7.0199 15.4238 6.85865L16.9575 5.92115L18.075 7.0424L17.1375 8.57615C16.9763 8.8424 16.9613 9.1724 17.1 9.4499C17.22 9.6899 17.325 9.9374 17.4075 10.1962C17.505 10.4924 17.7488 10.7137 18.0488 10.7849L19.8 11.2087V12.7912L18.0525 13.2149C17.7525 13.2862 17.5088 13.5112 17.4113 13.8037C17.325 14.0587 17.2238 14.3099 17.1038 14.5499C16.965 14.8274 16.98 15.1574 17.1413 15.4237L18.0788 16.9574L16.9575 18.0749L15.4238 17.1374C15.1575 16.9762 14.8275 16.9612 14.55 17.0999C14.31 17.2199 14.0625 17.3249 13.8038 17.4074C13.5075 17.5049 13.2863 17.7487 13.215 18.0487L12.7913 19.7999H11.2088L10.785 18.0524C10.7138 17.7524 10.4888 17.5087 10.1963 17.4112C9.94127 17.3249 9.69002 17.2237 9.45002 17.1037C9.17252 16.9649 8.84252 16.9799 8.57627 17.1412L7.04252 18.0787L5.92502 16.9574L6.86252 15.4237C7.02377 15.1574 7.03877 14.8274 6.90002 14.5499C6.78002 14.3099 6.67502 14.0624 6.59252 13.8037C6.49502 13.5074 6.25127 13.2862 5.95127 13.2149L4.20002 12.7912V11.2087L5.94752 10.7849C6.24752 10.7137 6.49127 10.4887 6.58877 10.1962C6.67502 9.94115 6.77627 9.6899 6.89627 9.4499C7.03502 9.1724 7.02002 8.8424 6.85877 8.57615L5.92502 7.0424L7.04252 5.9249L8.57627 6.8624C8.84252 7.02365 9.17252 7.03865 9.45002 6.8999C9.69002 6.7799 9.93752 6.6749 10.1963 6.5924C10.4925 6.4949 10.7138 6.25115 10.785 5.95115L11.2088 4.1999Z"/>
</svg>
