<svg width="18" height="20" viewBox="0 0 18 20" fill="none" xmlns="http://www.w3.org/2000/svg">
<path fill-rule="evenodd" clip-rule="evenodd" d="M10.3362 0.0581972C10.7343 0.200294 11 0.577321 11 0.999993L11 6.99999H17C17.3864 6.99999 17.7382 7.22259 17.9037 7.57176C18.0691 7.92093 18.0186 8.33418 17.774 8.63323L8.77397 19.6332C8.50632 19.9604 8.0619 20.0839 7.66382 19.9418C7.26575 19.7997 7.00001 19.4227 7.00001 19V13H1.00001C0.613621 13 0.261805 12.7774 0.0963413 12.4282C-0.0691225 12.0791 -0.0186229 11.6658 0.226054 11.3668L9.22605 0.366755C9.49371 0.0396247 9.93813 -0.0838995 10.3362 0.0581972ZM3.11025 11H8.00001C8.5523 11 9.00001 11.4477 9.00001 12V16.1986L14.8898 8.99999H10C9.73479 8.99999 9.48044 8.89464 9.2929 8.7071C9.10537 8.51956 9.00001 8.26521 9.00001 7.99999L9.00001 3.8014L3.11025 11Z" fill="#46B275"/>
</svg>
